<?xml version="1.0" encoding="UTF-8"?>
<svg id="Capa_1" data-name="Capa 1" xmlns="http://www.w3.org/2000/svg" viewBox="0 0 1920 263">
  <defs>
    <style>
      .cls-1 {
        fill: #fff;
        stroke-width: 0px;
      }
    </style>
  </defs>
  <path class="cls-1" d="M.5,262.5V1c7.17,5.3,61.7,44.97,147.02,88.33,84.2,42.79,216.47,98.02,368.41,118.17,14.29,1.89,29.42,2.86,44.98,2.85,99.67,0,211.85-37.9,341.73-81.78,130.64-44.14,278.71-94.16,440.41-112.07,18.98-2.1,39.03-3.17,59.6-3.17,126.33,0,260.2,40.27,350.25,74.05,94.54,35.46,161.87,71.38,166.59,73.92v101.2H.5Z"/>
  <path class="cls-1" d="M1,1.99c9.78,7.18,63.58,45.75,146.3,87.78,84.24,42.8,216.56,98.06,368.57,118.22,14.3,1.9,29.46,2.86,45.05,2.86,99.76,0,211.97-37.91,341.9-81.81,130.61-44.13,278.65-94.14,440.29-112.05,18.96-2.1,39-3.17,59.54-3.17,55.74,0,117.59,7.78,183.83,23.12,53.01,12.28,108.94,29.4,166.23,50.89,93.06,34.91,159.75,70.25,166.29,73.76v100.4H1V1.99M0,0v263h1920v-102S1647.37,12.83,1402.65,12.83c-20.14,0-40.06,1-59.65,3.17-318.84,35.32-579.95,193.85-782.08,193.85-15.32,0-30.28-.91-44.92-2.85C222,168,0,0,0,0h0Z"/>
</svg>