<?xml version="1.0" encoding="utf-8"?>
<!-- Generator: Adobe Illustrator 26.0.3, SVG Export Plug-In . SVG Version: 6.00 Build 0)  -->
<svg version="1.0" id="Capa_1" xmlns="http://www.w3.org/2000/svg" xmlns:xlink="http://www.w3.org/1999/xlink" x="0px" y="0px"
	 viewBox="0 0 838 588" style="enable-background:new 0 0 838 588;" xml:space="preserve">
<g>
	<path d="M613.8,183.2c-25.4,0-48.8-8.4-67.6-22.6c-21.6-16.3-37.1-40.1-42.5-67.6c-1.4-6.8-2.1-13.8-2.2-21H429v198.1L429,378.6
		c0,29-18.9,53.6-45.1,62.2c-7.6,2.5-15.8,3.7-24.3,3.2c-10.9-0.6-21.1-3.9-30-9.2c-18.9-11.3-31.7-31.8-32.1-55.3
		c-0.5-36.7,29.1-66.6,65.7-66.6c7.2,0,14.2,1.2,20.7,3.3v-54.1v-19.5c-6.9-1-13.8-1.5-20.9-1.5c-40.1,0-77.6,16.7-104.4,46.7
		c-20.3,22.7-32.4,51.7-34.3,82c-2.5,39.9,12.1,77.8,40.4,105.8c4.2,4.1,8.5,7.9,13.1,11.4c24.3,18.7,53.9,28.8,85.2,28.8
		c7.1,0,14-0.5,20.9-1.5c29.2-4.3,56.1-17.7,77.4-38.7c26.1-25.8,40.6-60.1,40.7-96.6l-0.4-162c12.5,9.6,26.1,17.6,40.7,23.7
		c22.7,9.6,46.9,14.5,71.7,14.4v-52.6v-19.5C614,183.2,613.8,183.2,613.8,183.2L613.8,183.2z"/>
</g>
</svg>
